<svg xmlns="http://www.w3.org/2000/svg" viewBox="0 0 512 512" fill="none">
  <defs>
    <linearGradient id="brandGrad" x1="0%" y1="0%" x2="100%" y2="100%">
      <stop offset="0%" stop-color="#6366f1" />
      <stop offset="50%" stop-color="#8b5cf6" />
      <stop offset="100%" stop-color="#38bdf8" />
    </linearGradient>
    <linearGradient id="iconGrad" x1="0%" y1="0%" x2="100%" y2="100%">
      <stop offset="0%" stop-color="#ffffff" />
      <stop offset="100%" stop-color="#e0e7ff" />
    </linearGradient>
  </defs>
  <rect width="512" height="512" rx="128" fill="url(#brandGrad)" />
  <path d="M176 192V144C176 117.49 197.49 96 224 96H288C314.51 96 336 117.49 336 144V192H384C410.51 192 432 213.49 432 240V384C432 410.51 410.51 432 384 432H128C101.49 432 80 410.51 80 384V240C80 213.49 101.49 192 128 192H176ZM224 144V192H288V144C288 135.16 280.84 128 272 128H240C231.16 128 224 135.16 224 144ZM128 240V384H384V240H128Z" fill="url(#iconGrad)" />
  <circle cx="256" cy="300" r="28" fill="#6366f1" />
</svg>
